<?xml version="1.0" encoding="UTF-8"?> <svg xmlns="http://www.w3.org/2000/svg" xmlns:xlink="http://www.w3.org/1999/xlink" id="Ebene_1" data-name="Ebene 1" width="528.33mm" height="160.74mm" viewBox="0 0 1497.63 455.65"><defs><clipPath id="clip-path"><rect x="-1.37" y="-27.13" width="1499.69" height="510.89" style="fill:none"></rect></clipPath></defs><g id="stream-expose"><g style="clip-path:url(#clip-path)"><g id="Gruppe_maskieren_2" data-name="Gruppe maskieren 2"><g id="graphic"><g id="black_lines" data-name="black lines"><path id="Pfad_2" data-name="Pfad 2" d="M-33.5,352.65s100.7-128.36,256.42-110,161.55,138.19,312.9,60.25,249.38-155,409-101.76,352.54,75,588.83-84.94" style="fill:none;stroke:#000;stroke-miterlimit:3.9991700585717185;stroke-width:5.998755087857578px"></path><path id="Pfad_8" data-name="Pfad 8" d="M-36.16,322.18s100.7-128.35,256.42-110,161.55,138.19,312.9,60.25,249.38-155,409-101.76,352.54,75,588.83-84.93" style="fill:none;stroke:#000;stroke-miterlimit:3.9991700585717185;stroke-width:5.998755087857578px"></path><path id="Pfad_3" data-name="Pfad 3" d="M-31.08,380.34S69.62,252,225.34,270.37s161.55,138.19,312.9,60.24,249.38-155,409-101.75,352.54,74.95,588.83-84.94" style="fill:none;stroke:#000;stroke-miterlimit:3.9991700585717185;stroke-width:5.998755087857578px"></path><path id="Pfad_4" data-name="Pfad 4" d="M-28.42,410.81S72.28,282.46,228,300.83,389.55,439,540.9,361.08s249.38-155,409-101.75,352.54,74.95,588.83-84.94" style="fill:none;stroke:#000;stroke-miterlimit:3.9991700585717185;stroke-width:5.998755087857578px"></path><path id="Pfad_5" data-name="Pfad 5" d="M-26,438.51s100.7-128.35,256.42-110S392,466.72,543.32,388.78s249.38-155,409-101.75,352.54,75,588.83-84.94" style="fill:none;stroke:#000;stroke-miterlimit:3.9991700585717185;stroke-width:5.998755087857578px"></path><path id="Pfad_6" data-name="Pfad 6" d="M-23.22,470.36S77.48,342,233.2,360.39s161.55,138.19,312.9,60.24,249.38-155,409-101.75,352.54,74.95,588.83-84.94" style="fill:none;stroke:#000;stroke-miterlimit:3.9991700585717185;stroke-width:5.998755087857578px"></path></g><path id="purple" d="M1138.24,210c350.84-199.14,41-23.07,366.81-207.61" style="fill:none;stroke:#fff;stroke-miterlimit:3.9991700585717185;stroke-width:5.998755087857578px"></path><g id="Ellipse_1" data-name="Ellipse 1"><ellipse cx="1140.59" cy="210.09" rx="29.42" ry="28.91" transform="translate(-13.96 100.05) rotate(-4.99)" style="fill:none"></ellipse><ellipse cx="1140.59" cy="210.09" rx="25.42" ry="24.91" transform="translate(-13.96 100.05) rotate(-4.99)" style="fill:none;stroke:#fff;stroke-miterlimit:3.9991700585717185;stroke-width:7.998340117143437px"></ellipse></g><ellipse id="Ellipse_2" data-name="Ellipse 2" cx="1140.59" cy="210.09" rx="7.43" ry="6.91" transform="translate(-13.96 100.05) rotate(-4.99)" style="fill:#fff"></ellipse></g></g></g></g></svg> 