<?xml version="1.0" encoding="UTF-8"?>
<svg xmlns="http://www.w3.org/2000/svg" xmlns:xlink="http://www.w3.org/1999/xlink" version="1.1" id="Ebene_1" x="0px" y="0px" viewBox="0 0 1497.6 455.6" style="enable-background:new 0 0 1497.6 455.6;" xml:space="preserve"> <style type="text/css"> .st0{clip-path:url(#SVGID_00000059284856999263504220000016538584195131909254_);} .st1{fill:none;stroke:#000000;stroke-width:5.9986;stroke-miterlimit:3.9991;} .st2{fill:none;stroke:#FFFFFF;stroke-width:5.9986;stroke-miterlimit:3.9991;} .st3{fill:none;} .st4{fill:none;stroke:#FFFFFF;stroke-width:7.9982;stroke-miterlimit:3.9991;} .st5{fill:#FFFFFF;} </style> <g id="stream-expose"> <g> <defs> <rect id="SVGID_1_" x="-1.4" y="-27.1" width="1499.7" height="510.9"/> </defs> <clipPath id="SVGID_00000063620850401805027000000006825235383162473387_"> <use xlink:href="#SVGID_1_" style="overflow:visible;"/> </clipPath> <g style="clip-path:url(#SVGID_00000063620850401805027000000006825235383162473387_);"> <g id="Gruppe_maskieren_2"> <g id="graphic"> <g id="black_lines"> <path id="Pfad_2" class="st1" d="M-33.5,352.6c0,0,100.7-128.4,256.4-110s161.5,138.2,312.9,60.2s249.4-155,409-101.8 s352.5,75,588.8-84.9"/> <path id="Pfad_8" class="st1" d="M-36.1,322.2c0,0,100.7-128.3,256.4-110s161.5,138.2,312.9,60.2s249.4-155,409-101.8 s352.5,75,588.8-84.9"/> <path id="Pfad_3" class="st1" d="M-31.1,380.3c0,0,100.7-128.3,256.4-110s161.5,138.2,312.9,60.2s249.4-155,409-101.7 s352.5,74.9,588.8-84.9"/> <path id="Pfad_4" class="st1" d="M-28.4,410.8c0,0,100.7-128.3,256.4-110S389.6,439,540.9,361.1s249.4-155,409-101.7 s352.5,74.9,588.8-84.9"/> <path id="Pfad_5" class="st1" d="M-26,438.5c0,0,100.7-128.3,256.4-110S392,466.7,543.3,388.8s249.4-155,409-101.7 s352.5,75,588.8-84.9"/> <path id="Pfad_6" class="st1" d="M-23.2,470.4c0,0,100.7-128.4,256.4-110s161.5,138.2,312.9,60.2s249.4-155,409-101.7 s352.5,74.9,588.8-84.9"/> </g> <path id="purple" class="st2" d="M1138.2,210c350.8-199.1,41-23.1,366.8-207.6"/> <g id="Ellipse_1"> <ellipse transform="matrix(0.9962 -8.698187e-02 8.698187e-02 0.9962 -13.9545 100.0055)" class="st3" cx="1140.6" cy="210.1" rx="29.4" ry="28.9"/> <ellipse transform="matrix(0.9962 -8.698187e-02 8.698187e-02 0.9962 -13.9545 100.0055)" class="st4" cx="1140.6" cy="210.1" rx="25.4" ry="24.9"/> </g> <ellipse id="Ellipse_2" transform="matrix(0.9962 -8.698187e-02 8.698187e-02 0.9962 -13.9545 100.0055)" class="st5" cx="1140.6" cy="210.1" rx="7.4" ry="6.9"/> </g> </g> </g> </g> </g> <g id="mission"> <g> <path d="M1331.1,136.6c2.1,9.5-1.8,17.1-5.8,22.1c-7.5,9.4-20.4,15.7-32.4,16.6c8.2-6,13.3-12.8,15.4-20.4c0.4-1.5-0.5-3.1-2-3.5 l0,0c-1.5-0.4-3.1,0.5-3.5,2c-2.2,8.2-9.1,15.5-20.3,21.8c-1,0.6-1.6,1.8-1.4,2.9c0.2,1.1,1,2,2,2.3c0.1,0,0.2,0,0.3,0.1 c15.9,2.8,35.8-5,46.3-18.2c6.6-8.3,8.9-17.7,6.8-27.1C1334.7,135.7,1332.9,136.2,1331.1,136.6z"/> <path d="M1273.3,93.3c-7.5-2.1-16-1.1-25.4,2.8c6.9-9.9,18.9-17.7,30.8-19.4c6.3-0.9,14.9-0.3,22,6.4c1.3-1.3,2.7-2.6,4-3.9 c-7-6.6-16.3-9.5-26.8-8.1c-16.7,2.3-33.6,15.4-39.4,30.4c-0.4,1.1-0.1,2.4,0.8,3.2c0.3,0.3,0.7,0.5,1.1,0.6 c0.7,0.2,1.5,0.1,2.2-0.3c11.2-6.4,20.9-8.5,29.1-6.3c0,0,0,0,0,0c1.5,0.4,3.1-0.5,3.5-2C1275.7,95.2,1274.8,93.7,1273.3,93.3z"/> <path d="M1295.5,144.7c-0.7-0.2-1.3-0.7-1.7-1.3l-18-31.8c-0.5-0.9-0.5-2,0.1-2.9c7.5-11.8,28.7-38.1,55.9-53.5 c36.2-20.5,66.6-16.7,81.5-12.6c6.9,1.9,10.8,3.9,10.9,4c1,0.5,1.6,1.5,1.5,2.6c-0.1,1.8-2.5,45.3-54.7,75 c-27.2,15.4-60.7,20.2-74.6,20.6C1296.1,144.8,1295.8,144.8,1295.5,144.7z M1281.6,110.3l16.3,28.8c12.3-0.6,44.4-5.1,70.3-19.8 c43.6-24.7,50.6-60,51.7-68.4c-1.6-0.7-4.4-1.8-8.1-2.8c-14.1-3.9-42.8-7.5-77.2,12C1308.7,74.8,1288.4,100.1,1281.6,110.3z"/> <path d="M1355.2,106c-5.8-1.6-10.7-5.4-13.7-10.7c-6.2-10.9-2.3-24.7,8.5-30.9c5.3-3,11.4-3.7,17.2-2.1 c5.8,1.6,10.7,5.4,13.7,10.7c6.2,10.9,2.3,24.7-8.5,30.9C1367.2,106.8,1361,107.6,1355.2,106z M1365.8,67.7 c-4.4-1.2-9-0.6-12.9,1.6c-8.2,4.6-11,15-6.4,23.2c2.2,3.9,5.9,6.8,10.3,8c4.4,1.2,9,0.6,12.9-1.6c8.2-4.6,11-15,6.4-23.2 C1373.8,71.8,1370.1,68.9,1365.8,67.7z"/> <path d="M1229.8,161c-0.7-0.2-1.3-0.7-1.7-1.3c-0.5-0.9-0.5-2.1,0.1-3c1.9-2.8,18.8-27.3,26-31.4c4.7-2.7,10.4-2.9,15.3-0.7 c1.4,0.6,2.1,2.3,1.4,3.7c-0.6,1.4-2.3,2.1-3.7,1.4c-3.3-1.5-7.1-1.3-10.2,0.5c-3.9,2.2-13.6,14.9-20.7,24.8 c12.2-1,28-2.9,31.9-5.1c3.1-1.8,5.2-4.8,5.6-8.3c0.2-1.5,1.6-2.6,3.2-2.4c1.5,0.2,2.6,1.6,2.4,3.2c-0.7,5.3-3.8,9.9-8.5,12.5 c-7.2,4.1-36.9,6-40.3,6.2C1230.4,161.2,1230.1,161.1,1229.8,161z"/> <path d="M1405.2,91.3c-0.7-0.2-1.3-0.7-1.7-1.3l-20.9-36.9c-0.8-1.4-0.3-3.1,1.1-3.9c1.4-0.8,3.1-0.3,3.9,1.1l20.9,36.9 c0.8,1.4,0.3,3.1-1.1,3.9C1406.6,91.4,1405.9,91.5,1405.2,91.3z"/> <path d="M1310.9,142.9c-0.7-0.2-1.3-0.7-1.7-1.4l-18-32.5c-0.8-1.4-0.3-3.1,1.1-3.9c1.4-0.8,3.1-0.3,3.9,1.1l18,32.5 c0.8,1.4,0.3,3.1-1.1,3.9C1312.4,143.1,1311.6,143.1,1310.9,142.9z"/> </g> </g> </svg>